# xmcd
#
# Track frame offsets: 
#        150
#        17825
#        36267
#        57825
#        88142
#        114892
#        144395
#
# Disc length: 2371 seconds
#
# Revision: 4
# Processed by: cddbd v1.5.2PL0 Copyright (c) Steve Scherf et al.
# Submitted via: ExactAudioCopy v1.3
#
DISCID=55094107
DTITLE=Jeanie Tracy and Bobby Womack - It's a Man's Man's Man's World
DYEAR=1995
DGENRE=Blues
TTITLE0=It's a Man's Man's Man's World
TTITLE1=It’s a Man’s Man’s Man’s World (Band of Gypsies edit)
TTITLE2=It’s a Man’s Man’s Man’s World (Late Nite Swang Thang)
TTITLE3=It’s a Man’s Man’s Man’s World (Sleaze Anthem mix)
TTITLE4=It’s a Man’s Man’s Man’s World (Band of Gypsies mix)
TTITLE5=It’s a Man’s Man’s Man’s World (Monday Bar Full on Vocal mix)
TTITLE6=It’s a Man’s Man’s Man’s World (Monday Bar dub)
EXTD=YEAR: 1995 ID3G: 0
EXTT0=
EXTT1=
EXTT2=
EXTT3=
EXTT4=
EXTT5=
EXTT6=
PLAYORDER=
